<?xml version="1.0" standalone="no"?>
<!DOCTYPE svg PUBLIC "-//W3C//DTD SVG 20010904//EN"
 "http://www.w3.org/TR/2001/REC-SVG-20010904/DTD/svg10.dtd">
<svg version="1.0" xmlns="http://www.w3.org/2000/svg"
 width="528.000000pt" height="528.000000pt" viewBox="0 0 528.000000 528.000000"
 preserveAspectRatio="xMidYMid meet">
<metadata>
Created by potrace 1.14, written by Peter Selinger 2001-2017
</metadata>
<g transform="translate(0.000000,528.000000) scale(0.100000,-0.100000)"
fill="#000000" stroke="none">
<path d="M2705 4220 c-44 -5 -154 -16 -244 -24 -420 -41 -752 -155 -1084 -374
-407 -266 -658 -639 -771 -1143 -13 -59 -31 -117 -39 -130 -37 -59 -50 -424
-22 -599 91 -560 546 -924 1286 -1027 284 -39 923 -12 1264 54 472 91 951 362
1217 690 177 217 309 500 368 785 12 57 29 119 40 138 39 76 53 388 24 577
-83 559 -511 921 -1229 1039 -115 19 -674 28 -810 14z m173 -346 c107 -16 200
-42 265 -75 142 -73 258 -281 292 -521 l6 -48 244 0 c170 0 246 -3 251 -11 13
-21 16 -323 5 -431 -6 -59 -21 -141 -33 -182 l-22 -76 -710 -2 -710 -3 -33
-130 c-18 -71 -33 -138 -33 -147 0 -17 28 -18 440 -18 l440 0 -1 -22 c0 -13
-23 -210 -52 -437 l-52 -415 -78 -33 c-156 -68 -210 -77 -432 -77 -431 0 -612
84 -731 340 -33 72 -67 190 -79 277 l-6 48 -243 -7 c-203 -6 -245 -5 -252 7
-14 21 -17 364 -5 463 6 48 20 118 31 156 l21 70 552 1 c304 1 624 4 712 8
l160 6 32 135 c18 74 33 141 33 149 0 11 -69 12 -440 6 l-440 -7 0 28 c0 47
97 830 103 841 10 17 108 59 198 88 147 45 341 52 567 19z"/>
</g>
</svg>
