<svg width="67" height="67" viewBox="0 0 67 67" fill="none" xmlns="http://www.w3.org/2000/svg">
<rect x="12.5625" y="14.7074" width="39.7812" height="37.5294" rx="18.7647" fill="black" fill-opacity="0.8"/>
<path d="M5.80078 34.3134L6.2041 33.9101C7.37565 26.9576 10.5446 21.6472 15.7109 17.9789C20.8773 14.3106 26.687 12.4765 33.1401 12.4765C40.6112 12.4765 45.9696 13.6192 49.2153 15.9047C52.4803 18.171 53.8823 21.0903 53.4214 24.6625L53.2485 25.5268H42.9351L42.9639 24.8642C42.6566 22.1178 41.8307 20.0244 40.4863 18.5839C39.1611 17.1435 36.3379 16.4233 32.0166 16.4233C28.694 16.4233 25.5923 17.7965 22.7114 20.5429C19.8306 23.2701 17.9964 27.3033 17.209 32.6425L16.3735 35.6674C15.6053 41.6212 16.3543 45.8369 18.6206 48.3144C20.9061 50.7919 24.1423 52.0307 28.3291 52.0307C30.9603 52.0307 33.2266 51.8675 35.1279 51.541C37.0485 51.2145 38.4985 50.8207 39.478 50.3598L41.0049 38.3466H29.4814L30.4609 34.6303L52.0962 34.6015L49.1865 49.8124C47.2852 51.1568 44.4715 52.4916 40.7456 53.8168C37.0389 55.142 32.5256 55.8046 27.2056 55.8046C19.6385 55.8046 13.8864 53.9705 9.94922 50.3022C6.01204 46.6339 4.62923 41.3043 5.80078 34.3134Z" fill="white"/>
<path d="M61.3114 32.6365L60.9094 33.0411C59.7604 39.9973 56.6088 45.3179 51.4544 49.0028C46.3 52.6878 40.4963 54.5406 34.0432 54.5614C26.5722 54.5855 21.2101 53.46 17.9569 51.185C14.6846 48.9293 13.2731 46.0146 13.7224 42.4408L13.8925 41.576L24.2059 41.5428L24.1792 42.2055C24.4954 44.9509 25.3281 47.0416 26.6772 48.4777C28.007 49.9139 30.8326 50.625 35.1539 50.611C38.4764 50.6003 41.5737 49.2171 44.4456 46.4614C47.3176 43.725 49.1386 39.6859 49.9087 34.3442L50.7343 31.3166C51.4832 25.3604 50.7204 21.1471 48.4461 18.6769C46.1526 16.2068 42.9124 14.9784 38.7256 14.9919C36.0944 15.0004 33.8287 15.171 31.9284 15.5036C30.0089 15.8363 28.5601 16.2347 27.5822 16.6988L26.0944 28.7168L37.6177 28.6796L36.6503 32.3991L15.0153 32.4977L17.8755 17.2774C19.7725 15.9269 22.5818 14.583 26.3033 13.2458C30.0057 11.9087 34.5169 11.2315 39.8369 11.2144C47.4039 11.19 53.1619 13.0056 57.111 16.6612C61.0601 20.3168 62.4602 25.6419 61.3114 32.6365Z" fill="white"/>
</svg>
