<svg width="32" height="33" viewBox="0 0 32 33" fill="none" xmlns="http://www.w3.org/2000/svg">
<rect x="6" y="7.9704" width="19" height="17.9245" rx="8.96224" fill="white" fill-opacity="0.8"/>
<path d="M2.9707 17.1835L3.16211 16.8964C3.72721 13.597 5.25846 11.0768 7.75586 9.33589C10.2624 7.59501 13.056 6.72456 16.1367 6.72456C19.7188 6.72456 22.3118 7.28055 23.916 8.39253C25.5202 9.50451 26.2174 10.899 26.0078 12.5761L25.9531 12.8359H20.9766V12.6171C20.8307 11.3958 20.4251 10.4296 19.7598 9.7187C19.0944 9.00777 17.709 8.6523 15.6035 8.6523C13.9902 8.6523 12.4681 9.31311 11.0371 10.6347C9.61523 11.9563 8.71745 13.9023 8.34375 16.4726L7.98828 17.6347C7.61458 20.5058 7.99284 22.5338 9.12305 23.7187C10.2533 24.8945 11.8529 25.4824 13.9219 25.4824C15.1706 25.4824 16.2507 25.414 17.1621 25.2773C18.0736 25.1315 18.7936 24.9446 19.3223 24.7168L20.0195 19.0703H14.4551L14.9199 17.1972L25.3516 17.1835L23.957 24.4707C22.9818 25.1725 21.5964 25.8333 19.8008 26.4531C18.0143 27.0638 15.8724 27.3691 13.375 27.3691C9.71094 27.3691 6.92188 26.4987 5.00781 24.7578C3.09375 23.0169 2.41471 20.4921 2.9707 17.1835Z" fill="black"/>
<path d="M29.0834 16.6849L28.8929 16.9727C28.3385 20.274 26.8155 22.7991 24.3238 24.548C21.8229 26.2969 19.0321 27.1764 15.9514 27.1863C12.3694 27.1979 9.77453 26.6502 8.16675 25.5434C6.55898 24.4366 5.85718 23.0444 6.06137 21.3666L6.11521 21.1067L11.0917 21.0906L11.0925 21.3094C11.2423 22.5303 11.651 23.4951 12.3187 24.2039C12.9863 24.9127 14.3729 25.2637 16.4784 25.2569C18.0916 25.2517 19.6116 24.586 21.0383 23.2597C22.4559 21.9336 23.3473 19.9847 23.7127 17.4132L24.0644 16.25C24.4287 13.3777 24.0439 11.3509 22.9098 10.1697C21.7758 8.99753 20.1743 8.4148 18.1053 8.42147C16.8566 8.42549 15.7767 8.49734 14.8657 8.63699C13.9548 8.78576 13.2353 8.97493 12.7074 9.2045L12.0285 14.8532L17.5929 14.8353L17.1342 16.7098L6.70263 16.7571L8.07347 9.46553C9.04644 8.76057 10.4297 8.0953 12.2232 7.46972C14.0077 6.85329 16.1486 6.54105 18.646 6.533C22.3101 6.52118 25.1019 7.38263 27.0217 9.11734C28.9414 10.852 29.6286 13.3746 29.0834 16.6849Z" fill="black"/>
</svg>
